<svg width="26" height="26" viewBox="0 0 26 26" fill="none" xmlns="http://www.w3.org/2000/svg">
<g clip-path="url(#clip0_56_986)">
<ellipse cx="13" cy="11.7812" rx="9.75" ry="9.34375" fill="white"/>
<path d="M15.5974 0H10.3972C5.37902 0 1.29688 4.08214 1.29688 9.10032V13.0005C1.29688 16.5268 3.3282 19.7217 6.49706 21.2265V25.5719C6.49706 25.9489 6.96832 26.1439 7.23483 25.8774L11.0115 22.104H15.5974C20.6155 22.104 24.6977 18.0219 24.6977 13.0005V9.10032C24.6977 4.08214 20.6155 0 15.5974 0ZM19.0035 17.0569L17.6872 18.344C16.3026 19.6993 12.6885 18.1522 9.50341 14.8988C6.3183 11.6422 4.92075 7.9956 6.23705 6.64031L7.55334 5.35326C8.03761 4.87875 8.85989 4.8885 9.40266 5.37276L11.3007 7.31308C11.9767 8.00535 11.6907 9.16564 10.797 9.43215C10.1794 9.63041 9.76017 10.3097 9.95843 10.9272C10.2867 12.3703 12.1165 14.1741 13.4815 14.5316C14.0958 14.6746 14.7848 14.3398 14.9994 13.7256C15.2821 12.8383 16.4489 12.575 17.1282 13.2705L19.023 15.2076C19.4975 15.6915 19.491 16.5141 19.0035 17.0569ZM14.1803 6.17521C14.0503 6.17521 13.9203 6.18172 13.7936 6.19797C13.5563 6.22397 13.3418 6.05171 13.3158 5.81445C13.2898 5.57719 13.462 5.36269 13.6993 5.33669C13.8586 5.31719 14.0211 5.31068 14.1803 5.31068C16.5692 5.31068 18.5127 7.25425 18.5127 9.64309C18.5127 9.80234 18.5062 9.96485 18.4867 10.1241C18.4607 10.3581 18.243 10.5336 18.009 10.5076C17.7749 10.4816 17.5994 10.2639 17.6254 10.0298C17.6384 9.90309 17.6482 9.77309 17.6482 9.64309C17.6482 7.73202 16.0914 6.17521 14.1803 6.17521V6.17521ZM16.7804 9.64309C16.7804 9.88034 16.5822 10.0754 16.3449 10.0754C16.1109 10.0754 15.9126 9.88034 15.9126 9.64309C15.9126 8.68755 15.1359 7.91078 14.1803 7.91078C13.9398 7.91078 13.7448 7.71577 13.7448 7.47526C13.7448 7.238 13.9398 7.043 14.1803 7.043C15.6136 7.043 16.7804 8.20979 16.7804 9.64309ZM20.0858 11.0439C20.0305 11.2779 19.7803 11.4241 19.5495 11.3624C19.3253 11.3006 19.1887 11.0666 19.2407 10.8424C19.335 10.4524 19.3805 10.0493 19.3805 9.64309C19.3805 6.77649 17.0469 4.4429 14.1803 4.4429C14.0471 4.4429 13.9106 4.44615 13.7773 4.45915C13.5401 4.47541 13.332 4.29665 13.3125 4.05939C13.2963 3.81888 13.475 3.61088 13.7123 3.59462C13.8683 3.58162 14.0243 3.57512 14.1803 3.57512C17.5247 3.57512 20.2483 6.29872 20.2483 9.64309C20.2483 10.1144 20.193 10.5856 20.0858 11.0439Z" fill="#665CAC"/>
</g>
<defs>
<clipPath id="clip0_56_986">
<rect width="26" height="26" fill="white"/>
</clipPath>
</defs>
</svg>
