<svg width="60" height="60" viewBox="0 0 60 60" fill="none" xmlns="http://www.w3.org/2000/svg">
<path fill-rule="evenodd" clip-rule="evenodd" d="M29.9986 13.0277C23.6521 13.0277 18.5072 18.1726 18.5072 24.5191C18.5072 29.0196 21.0942 32.9175 24.8664 34.8038L25.3629 35.0521V37.281H29.1005V34.4041L26.5862 31.8899L27.8564 30.6197L29.9986 32.7619L32.1408 30.6197L33.411 31.8899L30.8968 34.4041V37.281H34.6344V35.0521L35.1308 34.8038C38.903 32.9175 41.49 29.0196 41.49 24.5191C41.49 18.1726 36.3451 13.0277 29.9986 13.0277ZM34.6344 39.0773H25.3629V40.603H34.6344V39.0773ZM34.6344 42.3993H25.3629V43.5582H34.6344V42.3993ZM31.5138 45.3544H28.4835V46.9724H31.5138V45.3544ZM26.6872 45.3544V48.7687H33.3101V45.3544H36.4306V36.1489C40.5172 33.8841 43.2863 29.5257 43.2863 24.5191C43.2863 17.1805 37.3372 11.2314 29.9986 11.2314C22.66 11.2314 16.7109 17.1805 16.7109 24.5191C16.7109 29.5258 19.48 33.8841 23.5666 36.1489V45.3544H26.6872Z" fill="white"/>
</svg>
