<svg width="26" height="26" viewBox="0 0 26 26" fill="none" xmlns="http://www.w3.org/2000/svg">
<path d="M12.9992 0.619141H12.9933C6.50812 0.619141 1.23438 5.89435 1.23438 12.381C1.23438 14.954 2.06359 17.3387 3.47355 19.275L2.00772 23.6445L6.5287 22.1993C8.38855 23.4314 10.6071 24.1429 12.9992 24.1429C19.4844 24.1429 24.7582 18.8663 24.7582 12.381C24.7582 5.89583 19.4844 0.619141 12.9992 0.619141Z" fill="#4CAF50"/>
<path d="M19.5631 16.9118C19.2857 17.6768 18.1846 18.3113 17.3063 18.4966C16.7054 18.6215 15.9206 18.7212 13.2785 17.6515C9.89904 16.2844 7.72271 12.9309 7.55309 12.7134C7.39066 12.4958 6.1875 10.9377 6.1875 9.32627C6.1875 7.71484 7.02554 6.93017 7.36335 6.59329C7.64078 6.31676 8.09933 6.19043 8.53919 6.19043C8.6815 6.19043 8.80944 6.19745 8.92443 6.20306C9.26224 6.2171 9.43186 6.23675 9.65467 6.75752C9.9321 7.41024 10.6077 9.02167 10.6882 9.1873C10.7701 9.35294 10.8521 9.57753 10.7371 9.7951C10.6293 10.0197 10.5344 10.1194 10.3648 10.3103C10.1952 10.5012 10.0342 10.6471 9.86454 10.8521C9.70929 11.0303 9.53392 11.2212 9.72942 11.5511C9.92491 11.874 10.6005 12.9506 11.5952 13.8153C12.8789 14.9312 13.9196 15.2877 14.2919 15.4393C14.5694 15.5516 14.9 15.525 15.1027 15.3144C15.36 15.0435 15.6776 14.5943 16.0011 14.1521C16.2311 13.8349 16.5214 13.7956 16.8262 13.9079C17.1367 14.0132 18.7797 14.8063 19.1175 14.9705C19.4553 15.1361 19.6781 15.2147 19.7601 15.3537C19.8405 15.4927 19.8405 16.1454 19.5631 16.9118Z" fill="white"/>
</svg>
