<svg width="60" height="60" viewBox="0 0 60 60" fill="none" xmlns="http://www.w3.org/2000/svg">
<path fill-rule="evenodd" clip-rule="evenodd" d="M29.9976 10.7219L34.185 14.0752L39.5481 14.198L40.6003 19.4583L44.6298 22.9997L42.0545 27.7057L42.8649 33.0087L41.0743 33.7073L46.4562 43.029L38.6516 43.4974L34.3436 50.0222L29.9976 42.4947L25.6516 50.0222L21.3436 43.4974L13.5391 43.029L18.921 33.7072L17.1304 33.0087L17.9408 27.7057L15.3655 22.9997L19.395 19.4583L20.4472 14.198L25.8103 14.0752L29.9976 10.7219ZM20.5217 34.3317L16.3841 41.4982L22.2931 41.8529L25.5548 46.7929L30.6135 38.031L29.9976 37.8227L24.916 39.5416L22.1281 34.9584L20.5217 34.3317ZM32.2543 38.586L30.9782 40.7962L34.4405 46.7929L37.7021 41.8529L43.6112 41.4982L39.4736 34.3317L37.8672 34.9584L35.0793 39.5416L32.2543 38.586ZM29.9976 12.8979L26.4236 15.7601L21.8459 15.8649L20.9478 20.3549L17.5084 23.3776L19.7065 27.3944L19.0148 31.9207L23.2806 33.5848L25.6602 37.4968L29.9976 36.0296L34.3351 37.4968L36.7147 33.5848L40.9805 31.9207L40.2887 27.3944L42.4869 23.3776L39.0475 20.3549L38.1494 15.8649L33.5717 15.7601L29.9976 12.8979ZM29.9976 18.8708C26.2924 18.8708 23.2887 21.8745 23.2887 25.5798C23.2887 29.2851 26.2924 32.2888 29.9976 32.2888C33.7029 32.2888 36.7066 29.2851 36.7066 25.5798C36.7066 21.8745 33.7029 18.8708 29.9976 18.8708ZM21.5902 25.5798C21.5902 20.9365 25.3543 17.1723 29.9976 17.1723C34.6409 17.1723 38.4051 20.9365 38.4051 25.5798C38.4051 30.2231 34.6409 33.9872 29.9976 33.9872C25.3543 33.9872 21.5902 30.2231 21.5902 25.5798Z" fill="white"/>
</svg>
