<svg width="60" height="60" viewBox="0 0 60 60" fill="none" xmlns="http://www.w3.org/2000/svg">
<path fill-rule="evenodd" clip-rule="evenodd" d="M29.901 19.2C27.8522 19.2 26.201 20.8501 26.201 22.8736C26.201 24.2957 27.015 25.5335 28.2148 26.1448L28.9189 26.5034L26.4722 36.6H33.3297L30.8831 26.5034L31.5871 26.1448C32.7869 25.5335 33.601 24.2957 33.601 22.8736C33.601 20.8501 31.9497 19.2 29.901 19.2ZM24.201 22.8736C24.201 19.7349 26.7582 17.2 29.901 17.2C33.0437 17.2 35.601 19.7349 35.601 22.8736C35.601 24.7927 34.644 26.4858 33.1851 27.5112L35.8722 38.6H23.9297L26.6168 27.5112C25.1579 26.4858 24.201 24.7927 24.201 22.8736Z" fill="white"/>
<path fill-rule="evenodd" clip-rule="evenodd" d="M15.8582 9.59998H43.9356L50.9969 16.7997V17.2082C50.9969 31.1876 45.8591 39.9352 40.6573 45.1857C38.066 47.8011 35.4733 49.5351 33.5227 50.6174C32.5469 51.1587 31.73 51.5381 31.1517 51.7839C30.8624 51.9068 30.6326 51.9964 30.4721 52.0563C30.3919 52.0862 30.3289 52.1087 30.2845 52.1242C30.2702 52.1292 30.2578 52.1335 30.2474 52.1371C30.2417 52.139 30.2365 52.1408 30.232 52.1423L30.2164 52.1476L30.2114 52.1492L30.2096 52.1498C30.2088 52.1501 30.2082 52.1503 29.8969 51.2C29.5856 52.1503 29.5849 52.1501 29.5842 52.1498L29.5824 52.1492L29.5773 52.1476L29.5618 52.1423C29.549 52.138 29.5314 52.132 29.5092 52.1242C29.4648 52.1087 29.4019 52.0862 29.3216 52.0563C29.1611 51.9964 28.9313 51.9068 28.6421 51.7839C28.0637 51.5381 27.2469 51.1587 26.2711 50.6174C24.3205 49.5351 21.7277 47.8011 19.1365 45.1857C13.9346 39.9352 8.79688 31.1876 8.79688 17.2082V16.7997L15.8582 9.59998ZM29.8969 51.2L29.5856 52.1503L29.8969 52.2523L30.2082 52.1503L29.8969 51.2ZM29.8969 50.1354C30.0209 50.0875 30.1797 50.0238 30.3694 49.9432C30.8903 49.7218 31.6437 49.3726 32.5523 48.8685C34.3705 47.8597 36.8027 46.2346 39.2365 43.7781C44.0355 38.9342 48.8972 30.8032 48.9954 17.6152L43.0957 11.6H16.698L10.7984 17.6152C10.8965 30.8032 15.7583 38.9342 20.5573 43.7781C22.991 46.2346 25.4233 47.8597 27.2414 48.8685C28.15 49.3726 28.9034 49.7218 29.4243 49.9432C29.6141 50.0238 29.7729 50.0875 29.8969 50.1354Z" fill="white"/>
</svg>
