<svg width="60" height="60" viewBox="0 0 60 60" fill="none" xmlns="http://www.w3.org/2000/svg">
<path fill-rule="evenodd" clip-rule="evenodd" d="M35.4787 17.1219H42.6629V18.7224H36.7185L32.2056 36.2101H25.7986L11.7031 26.5262L13.2121 20.3015H34.6581L35.4787 17.1219ZM34.2451 21.902H14.4709L13.5183 25.8315L26.2954 34.6096H30.9657L34.2451 21.902Z" fill="white"/>
<path fill-rule="evenodd" clip-rule="evenodd" d="M43.4138 19.8021L44.8526 26.1358H49.1262V38.6621H44.5462V37.0617H47.5258V27.7363H39.4601V21.4026L38.3746 21.4026L34.5671 37.0617H36.8137V38.6621H22.75V37.0617H32.92L37.1167 19.8021L43.4138 19.8021ZM41.0605 21.4026V26.1358H43.2113L42.1361 21.4026L41.0605 21.4026Z" fill="white"/>
<path fill-rule="evenodd" clip-rule="evenodd" d="M40.783 34.7418C39.0598 34.7418 37.6629 36.1387 37.6629 37.8618C37.6629 39.585 39.0598 40.9818 40.783 40.9818C42.5061 40.9818 43.903 39.585 43.903 37.8618C43.903 36.1387 42.5061 34.7418 40.783 34.7418ZM36.0625 37.8618C36.0625 35.2548 38.1759 33.1414 40.783 33.1414C43.39 33.1414 45.5034 35.2548 45.5034 37.8618C45.5034 40.4689 43.39 42.5823 40.783 42.5823C38.1759 42.5823 36.0625 40.4689 36.0625 37.8618Z" fill="white"/>
<path fill-rule="evenodd" clip-rule="evenodd" d="M18.8845 34.7418C17.1614 34.7418 15.7645 36.1387 15.7645 37.8618C15.7645 39.585 17.1614 40.9818 18.8845 40.9818C20.6077 40.9818 22.0045 39.585 22.0045 37.8618C22.0045 36.1387 20.6077 34.7418 18.8845 34.7418ZM14.1641 37.8618C14.1641 35.2548 16.2775 33.1414 18.8845 33.1414C21.4916 33.1414 23.605 35.2548 23.605 37.8618C23.605 40.4689 21.4916 42.5823 18.8845 42.5823C16.2775 42.5823 14.1641 40.4689 14.1641 37.8618Z" fill="white"/>
<path fill-rule="evenodd" clip-rule="evenodd" d="M40.7857 37.777C40.7388 37.777 40.7008 37.815 40.7008 37.8619C40.7008 37.9087 40.7388 37.9467 40.7857 37.9467C40.8325 37.9467 40.8705 37.9087 40.8705 37.8619C40.8705 37.815 40.8325 37.777 40.7857 37.777ZM40.7857 38.5772C41.1808 38.5772 41.501 38.2569 41.501 37.8619C41.501 37.4668 41.1808 37.1465 40.7857 37.1465C40.3906 37.1465 40.0703 37.4668 40.0703 37.8619C40.0703 38.2569 40.3906 38.5772 40.7857 38.5772Z" fill="white"/>
<path fill-rule="evenodd" clip-rule="evenodd" d="M18.8794 37.777C18.8326 37.777 18.7946 37.815 18.7946 37.8619C18.7946 37.9087 18.8326 37.9467 18.8794 37.9467C18.9263 37.9467 18.9643 37.9087 18.9643 37.8619C18.9643 37.815 18.9263 37.777 18.8794 37.777ZM18.8794 38.5772C19.2745 38.5772 19.5948 38.2569 19.5948 37.8619C19.5948 37.4668 19.2745 37.1465 18.8794 37.1465C18.4843 37.1465 18.1641 37.4668 18.1641 37.8619C18.1641 38.2569 18.4843 38.5772 18.8794 38.5772Z" fill="white"/>
<path fill-rule="evenodd" clip-rule="evenodd" d="M27.1094 31.4859L29.3651 23.3306L30.9076 23.7572L28.6519 31.9126L27.1094 31.4859Z" fill="white"/>
<path fill-rule="evenodd" clip-rule="evenodd" d="M21.875 28.809L23.3903 23.3307L24.9328 23.7573L23.4175 29.2357L21.875 28.809Z" fill="white"/>
<path fill-rule="evenodd" clip-rule="evenodd" d="M17.3984 26.0697L18.1561 23.3306L19.6986 23.7572L18.941 26.4964L17.3984 26.0697Z" fill="white"/>
</svg>
