<svg width="60" height="60" viewBox="0 0 60 60" fill="none" xmlns="http://www.w3.org/2000/svg">
<path fill-rule="evenodd" clip-rule="evenodd" d="M15.8421 8.59999C16.4187 6.96872 17.9744 5.79999 19.8031 5.79999C21.6318 5.79999 23.1876 6.96872 23.7641 8.59999H36.6031V9.79999H47.8031V45.8142L39.4173 54.2H13.4031V33.2H12.2031V8.59999H15.8421ZM17.6031 9.99999C17.6031 8.78496 18.5881 7.79999 19.8031 7.79999C20.4863 7.79999 21.0967 8.11139 21.5003 8.59999H19.7031V10.6H34.6031V31.2H14.2031V10.6H15.6031V17.8C15.6031 20.1196 17.4835 22 19.8031 22C22.1227 22 24.0031 20.1196 24.0031 17.8V15.7C24.0031 14.2088 22.7943 13 21.3031 13C19.812 13 18.6031 14.2088 18.6031 15.7V16.9H20.6031V15.7C20.6031 15.3134 20.9165 15 21.3031 15C21.6897 15 22.0031 15.3134 22.0031 15.7V17.8C22.0031 19.015 21.0182 20 19.8031 20C18.5881 20 17.6031 19.015 17.6031 17.8V9.99999ZM36.6031 33.2V11.8H45.8031V44.4H38.0031V52.2H15.4031V33.2H36.6031ZM44.3889 46.4H40.0031V50.7858L44.3889 46.4Z" fill="white"/>
</svg>
