<svg width="60" height="60" viewBox="0 0 60 60" fill="none" xmlns="http://www.w3.org/2000/svg">
<path fill-rule="evenodd" clip-rule="evenodd" d="M50.2782 8.59998H39.2278V25.2746H35.7188V19.2623L22.3237 13.0083L8.92858 19.2623V25.2746H4.79688V51.6H55.1969V25.2746H50.2782V8.59998ZM30.1969 49.6H53.1969V27.2746H33.7188V20.5358L22.3237 15.2156L10.9286 20.5358V27.2746H6.79688V49.6H14.3969V33.4H30.1969V49.6ZM16.3969 49.6H28.1969V41H16.3969V49.6ZM16.3969 39V35.4H28.1969V39H16.3969ZM48.2782 25.2746H41.2278V10.6H48.2782V11.8H44.1969V13.8H48.2782V25.2746Z" fill="white"/>
<path fill-rule="evenodd" clip-rule="evenodd" d="M42.2969 35.4C40.3639 35.4 38.7969 36.967 38.7969 38.9C38.7969 40.833 40.3639 42.4 42.2969 42.4C44.2299 42.4 45.7969 40.833 45.7969 38.9C45.7969 36.967 44.2299 35.4 42.2969 35.4ZM36.7969 38.9C36.7969 35.8625 39.2593 33.4 42.2969 33.4C45.3344 33.4 47.7969 35.8625 47.7969 38.9C47.7969 41.9376 45.3344 44.4 42.2969 44.4C39.2593 44.4 36.7969 41.9376 36.7969 38.9Z" fill="white"/>
</svg>
