<svg width="26" height="26" viewBox="0 0 26 26" fill="none" xmlns="http://www.w3.org/2000/svg">
<g clip-path="url(#clip0_56_980)">
<path d="M12.9981 25.381C19.836 25.381 25.3791 19.8379 25.3791 13.0001C25.3791 6.16228 19.836 0.619141 12.9981 0.619141C6.16033 0.619141 0.617188 6.16228 0.617188 13.0001C0.617188 19.8379 6.16033 25.381 12.9981 25.381Z" fill="#039BE5"/>
<path d="M6.20445 12.648L18.2823 8.10347C18.8429 7.90584 19.3325 8.23693 19.1509 9.06414L19.1519 9.06312L17.0954 18.518C16.943 19.1883 16.5349 19.3513 15.9638 19.0355L12.8322 16.7831L11.3216 18.2032C11.1546 18.3662 11.0137 18.5037 10.6901 18.5037L10.9124 15.3935L16.7165 10.2764C16.9691 10.0594 16.6601 9.93719 16.3271 10.1532L9.1545 14.5602L6.06248 13.6189C5.39126 13.4111 5.37664 12.9638 6.20445 12.648V12.648Z" fill="white"/>
</g>
<defs>
<clipPath id="clip0_56_980">
<rect width="26" height="26" fill="white"/>
</clipPath>
</defs>
</svg>
