<svg width="60" height="60" viewBox="0 0 60 60" fill="none" xmlns="http://www.w3.org/2000/svg">
<path fill-rule="evenodd" clip-rule="evenodd" d="M3.52399 32H32.5084V37.3826H30.5084V34H5.31284L5.00465 36.7565L5.31284 39.513H31.675L37.9226 41.654L37.2742 43.546L31.3418 41.513H3.52399L2.99219 36.7565L3.52399 32Z" fill="white"/>
<path fill-rule="evenodd" clip-rule="evenodd" d="M18.7967 25.6C14.8541 25.6 11.3947 27.662 9.44334 30.7669L7.75 29.7026C10.0528 26.0386 14.1394 23.6 18.7967 23.6C23.454 23.6 27.5406 26.0386 29.8433 29.7026L28.15 30.7669C26.1986 27.662 22.7392 25.6 18.7967 25.6ZM9.44334 42.4331C11.3947 45.5379 14.8541 47.6 18.7967 47.6C22.7392 47.6 26.1986 45.5379 28.15 42.4331L29.8433 43.4973C27.5406 47.1613 23.454 49.6 18.7967 49.6C14.1394 49.6 10.0528 47.1613 7.75 43.4973L9.44334 42.4331Z" fill="white"/>
<path fill-rule="evenodd" clip-rule="evenodd" d="M32 10.6H45.2859L47.514 23.134L45.5448 23.4841L43.6101 12.6H34V24.8182H39.6997L41.7027 21.2513L43.4466 22.2305L41.9935 24.8182H47.9633L57 33.2235V44.8H53.1141C52.6402 47.5267 50.2622 49.6 47.4 49.6C44.1967 49.6 41.6 47.0032 41.6 43.8C41.6 40.5967 44.1967 38 47.4 38C50.2622 38 52.6402 40.0733 53.1141 42.8H55V37.8H53.4V35.6H55V34.0946L47.177 26.8182H32V10.6ZM43.6 43.8C43.6 41.7013 45.3013 40 47.4 40C49.4987 40 51.2 41.7013 51.2 43.8C51.2 45.8987 49.4987 47.6 47.4 47.6C45.3013 47.6 43.6 45.8987 43.6 43.8Z" fill="white"/>
<path d="M48.3984 43.8C48.3984 44.3523 47.9507 44.8 47.3984 44.8C46.8462 44.8 46.3984 44.3523 46.3984 43.8C46.3984 43.2477 46.8462 42.8 47.3984 42.8C47.9507 42.8 48.3984 43.2477 48.3984 43.8Z" fill="white"/>
<path d="M19.8016 36.7C19.8016 37.3075 19.3091 37.8 18.7016 37.8C18.094 37.8 17.6016 37.3075 17.6016 36.7C17.6016 36.0925 18.094 35.6 18.7016 35.6C19.3091 35.6 19.8016 36.0925 19.8016 36.7Z" fill="white"/>
</svg>
