<svg width="90" height="90" viewBox="0 0 90 90" fill="none" xmlns="http://www.w3.org/2000/svg">
<g clip-path="url(#clip0_56_1385)">
<path fill-rule="evenodd" clip-rule="evenodd" d="M45.0329 0.0820312C69.8651 0.0820312 89.9955 20.1708 89.9955 44.9515C89.9955 69.7323 69.8651 89.8211 45.0329 89.8211C20.2008 89.8211 0.0703125 69.7323 0.0703125 44.9515C0.0703125 20.1708 20.2008 0.0820312 45.0329 0.0820312Z" fill="white"/>
<path fill-rule="evenodd" clip-rule="evenodd" d="M79.0705 32.3409C79.3377 33.0622 79.5815 33.7854 79.8 34.5105C76.7734 35.955 73.9852 37.8273 71.5117 40.0507C71.3478 40.1978 71.1855 40.3465 71.0243 40.4968V42.6083H68.7306L68.7305 40.497C68.5695 40.3466 68.407 40.1978 68.2431 40.0507C62.0876 34.518 53.9829 31.1574 45.1024 31.1574C36.2219 31.1574 28.1171 34.5178 21.9616 40.0507C21.7977 40.1978 21.6352 40.3465 21.4743 40.4968V42.6083H19.1804V40.497C19.0194 40.3466 18.8569 40.1978 18.693 40.0507C16.1861 37.7973 13.3556 35.9041 10.2812 34.4518C10.5014 33.7193 10.7464 32.9972 11.0141 32.2847C13.9648 33.6551 16.7073 35.4055 19.1804 37.4741V30.4318H11.7667C11.9981 29.9054 12.2395 29.3875 12.4922 28.8801H19.1804V27.8038L13.0497 27.804C13.2084 27.5094 13.3713 27.2174 13.5382 26.9279H19.1821C19.2161 26.3194 19.718 25.8325 20.3273 25.8325C20.9366 25.8326 21.4386 26.3193 21.4724 26.9279H45.1024H68.7323C68.7661 26.3194 69.2681 25.8325 69.8774 25.8325C70.4867 25.8326 70.9888 26.3193 71.0228 26.9279H76.5254C76.6947 27.2197 76.8574 27.5115 77.0138 27.8038H71.0243V28.8801L77.5714 28.8802C77.8331 29.3965 78.0698 29.9138 78.2969 30.4318H71.0243V37.4743C73.4638 35.4337 76.1655 33.7028 79.0705 32.3409ZM45.1024 28.8801H21.4743V27.8038H45.1024H68.7306V28.8801H45.1024ZM68.7306 37.4741V30.4318H55.6947C60.5251 31.8849 64.9436 34.3067 68.7306 37.4741ZM21.4743 37.4741V30.4318H34.5102C29.6797 31.8849 25.2612 34.3067 21.4743 37.4741Z" fill="#6E2C1C"/>
<path fill-rule="evenodd" clip-rule="evenodd" d="M45.0316 36.145H44.605L44.6825 34.5149H45.0316H45.3809L45.4584 36.145H45.0316ZM45.0316 38.4069H45.5658L45.5087 37.2077H45.0316H44.5547L44.4975 38.4069H45.0316ZM45.0316 41.5327H45.7142L45.6223 39.5952H45.0316H44.441L44.349 41.5327H45.0316ZM45.0316 44.9248H45.8754L45.7869 43.059H45.0316H44.2765L44.1879 44.9248H45.0316ZM45.0316 48.9723H46.0678L45.9536 46.5694H45.0316H44.1097L43.9955 48.9723H45.0316ZM45.0316 59.8955H46.5867L46.4008 55.981H45.0316H43.6625L43.4766 59.8955H45.0316Z" fill="#6E2C1C"/>
<path fill-rule="evenodd" clip-rule="evenodd" d="M15.1122 65.4711C16.324 67.2483 17.6796 68.8492 19.1312 70.3327L29.0427 56.007H10.4523C10.9966 57.7278 11.6896 59.4046 12.5014 61.046L17.3348 61.54L15.1122 65.4711ZM9.39392 51.8798L9.79766 53.7051H30.6354L31.8981 51.8798H9.39392ZM8.74219 45.8728C8.77253 47.1081 8.86484 48.3438 9.02398 49.578H33.4908L43.9125 34.5149H42.0256L32.4258 43.8457L8.74219 45.8728Z" fill="#6E2C1C"/>
<path fill-rule="evenodd" clip-rule="evenodd" d="M77.5596 61.046C78.3475 59.4352 79.0431 57.7637 79.6086 56.007H61.0182L70.9298 70.3327C72.4104 68.825 73.7449 67.2003 74.9488 65.471L72.7263 61.54L77.5596 61.046ZM80.2633 53.7051C80.4181 53.097 80.5522 52.4885 80.667 51.8798H58.1628L59.4257 53.7051H80.2633ZM81.0369 49.578C81.1818 48.3542 81.2801 47.1201 81.3187 45.8728L57.6352 43.8457L48.0353 34.5149H46.1484L56.5703 49.578H81.0369Z" fill="#6E2C1C"/>
<path d="M36.4718 15.8584L34.6713 22.5487H35.5397L34.8756 25.0336H24.7109L25.375 22.5487H26.2433L27.4309 18.1267C27.6693 17.2432 28.0779 16.6315 28.6568 16.2917C29.142 16.0028 29.8742 15.8584 30.8532 15.8584H36.4718ZM32.9602 18.2287H30.2147L29.0527 22.5487H31.7981L32.9602 18.2287ZM46.3301 17.1454C46.3301 17.4343 46.2663 17.8209 46.1385 18.3051C46.0364 18.6789 45.9342 19.0527 45.8321 19.4265C45.6193 20.2081 45.2107 20.7688 44.6062 21.1087C44.2146 21.3295 43.7208 21.4399 43.1249 21.4399H39.4472L38.4767 25.0336H35.6291L38.0936 15.8584H44.2997C44.9212 15.8584 45.3766 15.9221 45.6661 16.0495C46.1088 16.245 46.3301 16.6103 46.3301 17.1454ZM43.3037 18.2287H40.3028L39.9707 19.4902H42.9717L43.3037 18.2287ZM55.7924 15.8584L55.154 18.2287H49.7013L48.5393 22.5487H53.9919L53.3279 25.0336H47.8752C47.0069 25.0336 46.3897 24.9359 46.0236 24.7405C45.6575 24.5451 45.4745 24.2053 45.4745 23.721C45.4745 23.4152 45.5384 23.0244 45.6661 22.5487L46.8281 18.2287C47.0835 17.2771 47.4921 16.6315 48.054 16.2917C48.5307 16.0028 49.2927 15.8584 50.3398 15.8584H55.7924ZM65.408 15.8584L63.6075 22.5487C63.3521 23.4831 63.0031 24.1309 62.5604 24.492C62.1177 24.8531 61.4153 25.0336 60.4534 25.0336H54.3622L55.0262 22.5487H60.7599L61.0791 21.3635H57.2226C56.482 21.3635 55.984 21.253 55.7286 21.0322C55.5413 20.8708 55.4476 20.6159 55.4476 20.2676C55.4476 20.0552 55.4944 19.7749 55.5881 19.4265L56.5458 15.8584H59.3551L58.3975 19.4265H61.6026L62.5604 15.8584H65.408Z" fill="#F56600"/>
<path d="M28.6732 66.8933C28.6732 66.9957 28.6096 67.2823 28.4824 67.7532C28.3634 68.1914 28.072 68.4105 27.6083 68.4105H26.0263L25.9217 68.7914H28.1992L27.9037 69.9032H25.1769C24.783 69.9032 24.5859 69.7476 24.5859 69.4364C24.5859 69.3422 24.6475 69.0719 24.7706 68.6256C24.8979 68.1587 25.2097 67.9253 25.7063 67.9253H27.2513L27.3559 67.5444H25.3615L25.657 66.4326H28.1315C28.4926 66.4326 28.6732 66.5862 28.6732 66.8933ZM30.2366 68.6747L29.9043 69.9032H28.6291L28.9615 68.6747H30.2366ZM36.1335 65.4805L34.2931 67.2127C35.0317 67.2127 35.401 67.4809 35.401 68.0174C35.401 68.1485 35.3785 68.2979 35.3334 68.4658L34.9456 69.9032H33.5729L34.0592 68.0973H32.5264L32.0402 69.9032H30.6675L31.8555 65.4805H33.2282L32.7604 67.2127H32.9204L34.7609 65.4805H36.1335ZM40.8609 65.4805L39.6729 69.9032H38.3002L38.7742 68.1341H37.2476L36.7737 69.9032H35.401L36.2936 66.5739C36.4085 66.1439 36.6075 65.847 36.8907 65.6831C37.1286 65.5481 37.4857 65.4805 37.9617 65.4805H40.8609ZM39.1928 66.5739H37.6663L37.4877 67.2496H39.0143L39.1928 66.5739ZM46.2962 65.4805L45.736 69.9032H44.3695L44.6403 67.9253C44.6609 67.7819 44.6916 67.6366 44.7326 67.4891H44.7204L43.4955 69.9032H42.3382L42.4059 67.4891H42.3936C42.3649 67.6038 42.3156 67.7492 42.2458 67.9253L41.4641 69.9032H40.0976L41.9134 65.4805H43.557L43.5324 67.2496C43.5283 67.4789 43.5016 67.6878 43.4523 67.8761H43.4646C43.5088 67.7113 43.5959 67.5025 43.7252 67.2475L44.6496 65.4805H46.2962ZM51.2082 65.4805L50.9004 66.623H48.5367L48.3829 67.2004H50.5372L50.2848 68.1341H48.1305L47.9766 68.7054H50.3402L50.0202 69.9032H46.2653L47.4533 65.4805H51.2082ZM55.9355 65.4805L54.7476 69.9032H53.3564L53.8305 68.1341H52.3347L51.8606 69.9032H50.4695L51.6575 65.4805H53.0487L52.587 67.2004H54.0828L54.5444 65.4805H55.9355ZM60.7306 65.4805L58.8902 67.2127C59.6289 67.2127 59.9982 67.4809 59.9982 68.0174C59.9982 68.1485 59.9756 68.2979 59.9305 68.4658L59.5427 69.9032H58.17L58.6563 68.0973H57.1236L56.6373 69.9032H55.2646L56.4526 65.4805H57.8253L57.3575 67.2127H57.5176L59.358 65.4805H60.7306ZM65.4581 65.4805L64.27 69.9032H62.8973L63.3714 68.1341H61.8448L61.3708 69.9032H59.9982L60.8907 66.5739C61.0056 66.1439 61.2046 65.847 61.4878 65.6831C61.7258 65.5481 62.0828 65.4805 62.5588 65.4805H65.4581ZM63.7899 66.5739H62.2634L62.0848 67.2496H63.6114L63.7899 66.5739Z" fill="#F56600"/>
<path fill-rule="evenodd" clip-rule="evenodd" d="M45.0329 0.0820312C69.8651 0.0820312 89.9955 20.1708 89.9955 44.9515C89.9955 69.7323 69.8651 89.8211 45.0329 89.8211C20.2008 89.8211 0.0703125 69.7323 0.0703125 44.9515C0.0703125 20.1708 20.2008 0.0820312 45.0329 0.0820312ZM45.0329 8.72787C65.0802 8.72787 81.3317 24.9458 81.3317 44.9515C81.3317 64.9573 65.0802 81.1752 45.0329 81.1752C24.9856 81.1752 8.73409 64.9573 8.73409 44.9515C8.73409 24.9458 24.9856 8.72787 45.0329 8.72787Z" fill="#F56600"/>
<path fill-rule="evenodd" clip-rule="evenodd" d="M43.6004 74.1384H46.475L46.9426 79.2068H43.1328L43.6004 74.1384Z" fill="#6E2C1C" stroke="#2B2A29" stroke-width="0.755906" stroke-miterlimit="22.9256"/>
<path d="M14.0286 74.5584C14.912 75.4726 16.1292 75.4609 17.1013 74.5256C18.0604 73.6027 18.1165 72.3808 17.2415 71.4752C16.3747 70.5781 15.1448 70.5936 14.1898 71.5124C13.2307 72.4354 13.166 73.6656 14.0286 74.5584ZM14.5875 74.0371C14.0939 73.5264 14.187 72.8238 14.8322 72.203C15.486 71.5739 16.1931 71.4983 16.6825 72.0047C17.18 72.5282 17.0912 73.2266 16.4331 73.8599C15.7966 74.4724 15.0769 74.5436 14.5875 74.0371ZM10.726 70.6906C11.5108 71.6904 12.7228 71.8034 13.7858 70.9723C14.8347 70.1524 15.016 68.9426 14.2385 67.9522C13.4685 66.9713 12.2434 66.8609 11.1992 67.6772C10.1503 68.4972 9.95955 69.7143 10.726 70.6906ZM11.3353 70.2293C10.8969 69.6707 11.0617 68.9815 11.7672 68.4299C12.4822 67.871 13.1934 67.868 13.6281 68.4219C14.0692 68.9935 13.9092 69.6792 13.1895 70.2417C12.4934 70.7859 11.7701 70.7832 11.3353 70.2293ZM7.82072 66.266C8.44634 67.3719 9.62772 67.665 10.8036 67.0026C11.9639 66.349 12.325 65.1801 11.7052 64.0845C11.0914 62.9993 9.89673 62.7068 8.74161 63.3575C7.58134 64.0111 7.20977 65.1859 7.82072 66.266ZM8.49256 65.9011C8.14309 65.2832 8.40964 64.6264 9.1901 64.1867C9.981 63.7412 10.6845 63.8447 11.0311 64.4574C11.3813 65.0886 11.12 65.7426 10.3239 66.191C9.55382 66.6248 8.83921 66.5139 8.49256 65.9011ZM9.07358 55.9968L7.32346 56.7037L7.50053 57.1404L4.2938 58.4357L5.43037 61.2379L6.02847 60.9963C7.19156 60.5265 8.08409 60.359 8.89271 60.5727L9.01381 60.8711L10.7639 60.1642L10.4254 59.3296L9.41184 59.739L8.39856 57.2408L9.41212 56.8314L9.07358 55.9968ZM7.85029 58.0026L8.50265 59.6109C7.72446 59.52 6.93271 59.634 5.85274 60.0702L5.78626 60.0971L5.34688 59.0139L7.85029 58.0026ZM3.30347 54.9964C3.58971 56.2339 4.63954 56.8488 5.95521 56.5458C7.25353 56.2468 7.93151 55.2278 7.64803 54.0019C7.36715 52.7876 6.30448 52.1696 5.01195 52.4673C3.7137 52.7663 3.024 53.788 3.30347 54.9964ZM4.05139 54.8364C3.89147 54.145 4.33354 53.5903 5.2068 53.3892C6.09177 53.1854 6.73715 53.4835 6.89566 54.169C7.0524 54.8734 6.61626 55.4267 5.7255 55.6319C4.86389 55.8303 4.20996 55.522 4.05139 54.8364ZM2.7794 51.9209L6.99502 51.3507L6.8706 50.4349L5.35493 50.6399L5.22656 49.6945C5.11173 48.8496 4.5972 48.2574 3.67948 48.3815C2.74983 48.5072 2.40946 49.197 2.53303 50.1069L2.7794 51.9209ZM3.41285 50.9025L3.30057 50.0754C3.24518 49.6677 3.36331 49.3388 3.81328 49.278C4.28103 49.2147 4.45894 49.5035 4.51512 49.9171L4.62662 50.7384L3.41285 50.9025ZM2.13317 45.5605C2.15434 46.8303 3.05251 47.6503 4.4027 47.6278C5.73489 47.6056 6.61097 46.7502 6.58994 45.4923C6.56912 44.2462 5.65902 43.4205 4.33276 43.4426C3.0005 43.4648 2.11242 44.3204 2.13317 45.5605ZM2.89803 45.5596C2.88618 44.8501 3.43438 44.3998 4.33057 44.3848C5.23862 44.3698 5.8075 44.7956 5.81922 45.4991C5.82529 46.2206 5.28309 46.6709 4.36904 46.6861C3.48484 46.7009 2.90982 46.2632 2.89803 45.5596ZM4.81604 40.809L5.39297 40.4236L6.7133 40.6022L6.83362 39.7159L5.51329 39.5373L5.05994 39.0127L7.04788 38.1383L7.20356 36.992L4.48216 38.3389L2.96712 36.5755L2.81624 37.6863L4.34095 39.3788L2.618 39.1458L2.49768 40.032L4.22055 40.2651L2.29944 41.4914L2.14855 42.6023L4.07934 41.305L6.34336 43.326L6.49819 42.1857L4.81604 40.809ZM4.21201 31.9885L3.94948 32.881L5.48591 33.3311L4.99628 34.9959L3.45978 34.5459L3.19726 35.4384L7.27921 36.634L7.54174 35.7415L5.78168 35.226L6.27138 33.5611L8.03144 34.0767L8.29397 33.1841L4.21201 31.9885ZM5.1701 29.0455C4.71286 30.2308 5.23763 31.3268 6.49777 31.811C7.74125 32.2887 8.87478 31.8232 9.32771 30.6492C9.77634 29.4861 9.24267 28.3802 8.00477 27.9047C6.76129 27.427 5.61661 27.8881 5.1701 29.0455ZM5.87956 29.3308C6.13496 28.6686 6.81245 28.4561 7.64887 28.7774C8.49637 29.103 8.86384 29.7107 8.61056 30.3672C8.34528 31.0383 7.67336 31.2531 6.82022 30.9253C5.99502 30.6083 5.62621 29.9874 5.87956 29.3308ZM8.0409 23.3353L6.56517 26.1584L10.3369 28.1219L11.832 25.2619L11.1381 24.9007L10.0713 26.9413L9.1443 26.4587L10.106 24.619L9.45439 24.2798L8.4927 26.1194L7.6716 25.6919L8.71896 23.6884L8.0409 23.3353ZM9.62419 20.9184L13.115 23.3447L13.6444 22.5864L12.3892 21.714L12.9356 20.9311C13.4239 20.2315 13.4465 19.4479 12.6866 18.9197C11.9168 18.3847 11.1984 18.6629 10.6725 19.4163L9.62419 20.9184ZM10.7811 20.5962L11.2591 19.9112C11.4948 19.5736 11.8047 19.4112 12.1773 19.6702C12.5646 19.9395 12.4999 20.2722 12.2608 20.6147L11.7862 21.2948L10.7811 20.5962ZM14.572 14.9071L12.3786 17.2196L15.4683 20.1379L17.6904 17.7951L17.1219 17.2582L15.5364 18.9297L14.7771 18.2124L16.2064 16.7055L15.6726 16.2013L14.2433 17.7083L13.5707 17.073L15.1274 15.4317L14.572 14.9071ZM18.117 17.3157L18.7859 16.7295L16.8107 14.4848L19.5806 16.0331L20.1238 15.557L18.9146 12.6014L20.9095 14.8685L21.5694 14.2901L18.7623 11.1002L17.7836 11.9579L18.9842 14.7861L16.311 13.2484L15.3098 14.1257L18.117 17.3157ZM21.4994 9.12451C20.4312 9.8149 20.2098 11.0094 20.9438 12.1405C21.668 13.2565 22.8591 13.5452 23.9173 12.8614C24.9655 12.184 25.1855 10.9763 24.4644 9.86518C23.7402 8.74914 22.5425 8.4504 21.4994 9.12451ZM21.9051 9.77159C22.502 9.38593 23.1751 9.61151 23.6623 10.3622C24.156 11.123 24.0951 11.8301 23.5034 12.2125C22.8933 12.5997 22.2234 12.3791 21.7265 11.6134C21.2458 10.8727 21.3133 10.1541 21.9051 9.77159ZM27.3808 5.91548L26.557 6.35086L27.3065 7.76297L25.77 8.57505L25.0205 7.16294L24.1968 7.59831L26.188 11.35L27.0117 10.9146L26.1532 9.29699L27.6897 8.48483L28.5482 10.1025L29.3719 9.66714L27.3808 5.91548ZM31.4887 4.27414L28.2487 5.58293L28.5468 6.31797L29.7321 5.83921L31.0301 9.03937L31.8996 8.68808L30.6015 5.48799L31.7869 5.00924L31.4887 4.27414ZM35.8659 3.08379L34.9706 3.34247L35.4159 4.8774L33.7458 5.35989L33.3005 3.82496L32.4051 4.08363L33.5882 8.16151L34.4836 7.90283L33.9734 6.14458L35.6435 5.66202L36.1536 7.42034L37.049 7.16167L35.8659 3.08379ZM39.1989 2.49856C37.9377 2.66913 37.2276 3.65579 37.4089 4.99107C37.5879 6.30867 38.5423 7.07617 39.7916 6.90715C41.0291 6.73981 41.7435 5.74068 41.5654 4.42893C41.3864 3.11133 40.4304 2.332 39.1989 2.49856ZM39.2898 3.25648C39.9944 3.16119 40.5071 3.65143 40.6275 4.53774C40.7494 5.43581 40.3926 6.04972 39.694 6.14423C38.9768 6.23522 38.4648 5.75089 38.342 4.84684C38.2232 3.97243 38.5911 3.35099 39.2898 3.25648ZM44.1604 4.46238L42.3622 4.49224L42.3748 5.24939L44.173 5.21953L44.1604 4.46238ZM48.7499 4.87395L47.8239 4.85839C47.7357 5.47708 47.3956 5.80533 46.834 5.79589C46.147 5.78434 45.7203 5.21658 45.7351 4.34019C45.7471 3.63079 46.0762 2.9028 46.8946 2.91653C47.3964 2.92498 47.7383 3.20507 47.826 3.67171L48.74 3.68706C48.6832 2.80948 47.9472 2.15305 46.9257 2.13586C45.6234 2.11396 44.8181 3.08443 44.7973 4.3185C44.7747 5.65984 45.5781 6.56192 46.8148 6.5827C47.9797 6.60228 48.6368 5.90971 48.7499 4.87395ZM52.9379 2.88406L49.4742 2.41559L49.3675 3.20141L50.6345 3.37275L50.1699 6.79383L51.0994 6.91955L51.5641 3.49853L52.8312 3.66988L52.9379 2.88406ZM53.7922 3.08534L52.8475 7.2247L53.7505 7.42992L54.0902 5.94161L55.0223 6.15345C55.8554 6.34276 56.5918 6.06978 56.7974 5.16868C57.0057 4.25589 56.4778 3.69565 55.5807 3.49177L53.7922 3.08534ZM54.5253 4.03469L55.3409 4.22004C55.743 4.31139 56.01 4.53725 55.9092 4.97903C55.8044 5.43835 55.471 5.50321 55.0632 5.41053L54.2533 5.2265L54.5253 4.03469ZM60.0753 4.81001C58.8875 4.35372 57.7892 4.8774 57.304 6.13493C56.8253 7.37584 57.2918 8.50702 58.4683 8.95901C59.6337 9.40671 60.7419 8.87415 61.2185 7.63881C61.6971 6.3979 61.235 5.25559 60.0753 4.81001ZM59.7894 5.51799C60.4529 5.77287 60.6659 6.44895 60.3439 7.28364C60.0176 8.12939 59.4087 8.4961 58.7508 8.24334C58.0783 7.97861 57.8631 7.30808 58.1916 6.4567C58.5092 5.63321 59.1314 5.26516 59.7894 5.51799ZM66.2064 7.76888L65.274 7.28344L62.4919 9.1505L62.476 9.14219L63.8384 6.53608L63.012 6.10577L61.0443 9.86969L61.9767 10.3551L64.7616 8.48272L64.7775 8.49096L63.4123 11.1025L64.2387 11.5328L66.2064 7.76888ZM69.8844 10.0639L66.9294 8.2008L66.5049 8.87119L67.5859 9.5527L65.7381 12.4714L66.5311 12.9714L68.3789 10.0527L69.4599 10.7343L69.8844 10.0639ZM73.1317 12.6563L70.641 10.6664L67.9823 13.9806L70.5057 15.9965L70.9949 15.3868L69.1944 13.9484L69.8479 13.1339L71.4711 14.4306L71.9304 13.8581L70.3072 12.5613L70.8859 11.8398L72.6537 13.2521L73.1317 12.6563ZM76.4322 15.7712L74.2799 13.7382L72.4494 15.5639C71.8324 16.1799 71.5985 16.1314 71.4163 15.9592C71.3295 15.8773 71.2544 15.757 71.2269 15.6819L70.7094 16.2275C70.7718 16.3439 70.9205 16.5254 71.0419 16.6401C71.5714 17.1402 72.2363 17.0376 73.0964 16.1916L74.3802 14.9248L75.209 15.7077L72.8308 18.215L73.5077 18.8544L76.4322 15.7712ZM77.2184 21.3462C77.9521 20.7823 77.8918 20.0006 77.3705 19.3251L76.7581 18.5315L77.9699 17.6001L77.4049 16.8679L74.0343 19.4583L75.1828 20.9463C75.7442 21.6738 76.4751 21.9173 77.2184 21.3462ZM76.6737 20.6208C76.3139 20.8973 76.0183 20.7782 75.7449 20.4239L75.2054 19.7248L76.1758 18.979L76.7117 19.6734C76.9669 20.0041 77.0286 20.348 76.6737 20.6208ZM82.0117 23.3242L81.505 22.5435L80.161 23.4121L79.2159 21.9557L80.5599 21.0871L80.0532 20.3063L76.4825 22.614L76.9891 23.3948L78.5288 22.3997L79.4739 23.8561L77.9342 24.8511L78.4409 25.6319L82.0117 23.3242ZM83.5626 26.0313C82.9669 24.9089 81.794 24.5844 80.6007 25.215C79.4232 25.8373 79.0307 26.9961 79.6208 28.1079C80.2052 29.2092 81.3915 29.5335 82.5638 28.914C83.7412 28.2917 84.1442 27.1274 83.5626 26.0313ZM82.8811 26.378C83.2139 27.005 82.9298 27.6545 82.1377 28.0731C81.3352 28.4973 80.6347 28.375 80.3047 27.7532C79.9716 27.1129 80.2504 26.4661 81.0583 26.0391C81.8398 25.6262 82.5511 25.7562 82.8811 26.378ZM85.9336 32.2523L84.9589 29.2205L80.9081 30.5173L81.8955 33.5889L82.6408 33.3503L81.9363 31.1588L82.9319 30.84L83.5671 32.8158L84.2669 32.5917L83.6317 30.616L84.5136 30.3336L85.2053 32.4854L85.9336 32.2523ZM82.6392 35.9762C82.6188 36.0703 82.5939 36.2801 82.6319 36.5036C82.7468 37.1796 83.1326 37.4529 84.0528 37.6963L87.3793 38.5847L87.2125 37.603L84.8456 37.0481L86.8937 35.7277L86.7208 34.7107L84.3377 36.3781C84.1809 36.4893 84.0113 36.633 83.8288 36.6638C83.6402 36.6958 83.4454 36.5836 83.3974 36.3014C83.3685 36.1309 83.3886 35.9642 83.4168 35.8446L82.6392 35.9762ZM87.8237 42.9655L87.5512 39.3804L83.3092 39.7015L83.3797 40.629L86.8294 40.3679L86.9608 42.098L83.5113 42.3592L83.5818 43.2867L87.8237 42.9655ZM87.8568 44.1881L83.6033 44.1164L83.5876 45.0404L85.117 45.0662L85.1009 46.0201C85.0864 46.8726 85.5055 47.5356 86.4315 47.5513C87.3694 47.567 87.8104 46.9364 87.8259 46.0183L87.8568 44.1881ZM87.0765 45.0992L87.0624 45.9338C87.0555 46.3452 86.8889 46.6525 86.4349 46.6449C85.9629 46.6369 85.8308 46.3246 85.8378 45.9072L85.8519 45.0786L87.0765 45.0992ZM87.507 50.3134L87.6363 49.362L83.6381 47.1907L83.5097 48.136L84.4046 48.6061L84.1919 50.1718L83.2055 50.3753L83.0739 51.3445L87.507 50.3134ZM84.8974 50.0386L85.0491 48.9219L86.5379 49.6949L84.8974 50.0386ZM87.2016 52.6424L83.0537 51.6997L82.5813 53.7694C82.4036 54.5485 82.6869 55.2672 83.4967 55.4512C84.0734 55.5823 84.4624 55.3283 84.6828 54.9258C84.7574 55.2974 85.0086 55.593 85.4105 55.6843C86.1446 55.8512 86.5887 55.3283 86.7545 54.6016L87.2016 52.6424ZM86.2951 53.3659L86.1066 54.1914C86.027 54.5403 85.8802 54.8615 85.4607 54.7663C85.0413 54.6709 85.0581 54.3017 85.1337 53.9704L85.3221 53.1448L86.2951 53.3659ZM84.7046 53.0044L84.5069 53.8707C84.414 54.2776 84.2571 54.6701 83.7561 54.5562C83.2667 54.445 83.2772 54.0499 83.366 53.6604L83.5744 52.7476L84.7046 53.0044ZM84.9604 60.4805L85.9244 57.6839L83.5013 56.7764C82.6841 56.4708 82.6315 56.2383 82.7132 56.0015C82.752 55.8887 82.8306 55.7707 82.8878 55.7147L82.176 55.4703C82.0956 55.5752 81.9916 55.7853 81.9371 55.9432C81.7 56.6311 82.0688 57.1927 83.1964 57.624L84.8834 58.2661L84.5122 59.343L81.2407 58.22L80.9376 59.0996L84.9604 60.4805ZM83.1576 64.5043L84.4869 61.6098L80.6196 59.8409L79.2729 62.7734L79.9844 63.0989L80.9453 61.0066L81.8958 61.4413L81.0295 63.3275L81.6976 63.6331L82.564 61.7469L83.4058 62.1319L82.4623 64.1862L83.1576 64.5043ZM80.8248 68.5373L81.287 67.7296L79.8966 66.9371L80.7589 65.4304L82.1494 66.2229L82.6116 65.4152L78.9175 63.3098L78.4552 64.1175L80.0481 65.0253L79.1858 66.532L77.5929 65.6242L77.1306 66.4319L80.8248 68.5373ZM77.7616 72.5466L78.4101 71.7205L77.0787 68.6498L77.0898 68.6357L79.4086 70.4484L79.9834 69.7162L76.6344 67.0982L75.986 67.9243L77.3221 70.9987L77.3111 71.0128L74.9874 69.1963L74.4126 69.9286L77.7616 72.5466ZM74.7456 75.7624L76.939 73.45L73.8493 70.5317L71.6272 72.8744L72.1957 73.4113L73.7811 71.7398L74.5405 72.4571L73.1112 73.964L73.6449 74.4682L75.0742 72.9612L75.7468 73.5965L74.1902 75.2378L74.7456 75.7624Z" fill="#FEFEFE"/>
</g>
<defs>
<clipPath id="clip0_56_1385">
<rect width="90" height="90" fill="white"/>
</clipPath>
</defs>
</svg>
