<svg width="160" height="44" viewBox="0 0 160 44" fill="none" xmlns="http://www.w3.org/2000/svg">
<path d="M46.2378 0L39.1592 32.0835H42.573L39.9624 44H0L2.61057 32.0835H6.02462L10.6936 10.8777C11.6306 6.64082 13.2373 3.70729 15.513 2.07774C17.4207 0.692704 20.2993 0 24.1481 0H46.2378ZM32.4318 11.3667H21.638L17.0695 32.0835H27.8632L32.4318 11.3667ZM84.9953 6.17204C84.9953 7.55742 84.7445 9.41122 84.2423 11.7335C83.8408 13.5258 83.439 15.3185 83.0376 17.1112C82.2008 20.8593 80.5943 23.548 78.2179 25.1779C76.6783 26.237 74.737 26.7666 72.3942 26.7666H57.9355L54.12 44H42.9245L52.6137 0H77.0129C79.4562 0 81.2469 0.305668 82.3847 0.916624C84.1252 1.85383 84.9953 3.60562 84.9953 6.17204ZM73.097 11.3667H61.2991L59.9937 17.4165H71.7918L73.097 11.3667ZM122.196 0L119.686 11.3667H98.2492L93.6807 32.0835H115.118L112.507 44H91.0701C87.656 44 85.2297 43.5316 83.7906 42.5944C82.3511 41.6575 81.6317 40.0279 81.6317 37.7057C81.6317 36.2389 81.8828 34.3648 82.3847 32.0835L86.9533 11.3667C87.9574 6.80362 89.5638 3.70729 91.7729 2.07774C93.6471 0.692704 96.6427 0 100.759 0H122.196ZM160 0L152.921 32.0835C151.917 36.5648 150.545 39.6713 148.804 41.4028C147.064 43.1344 144.303 44 140.521 44H116.574L119.184 32.0835H141.726L142.981 26.4001H127.819C124.907 26.4001 122.949 25.8702 121.945 24.8111C121.209 24.037 120.841 22.8148 120.841 21.1444C120.841 20.1258 121.025 18.7816 121.393 17.1112L125.158 0H136.203L132.438 17.1112H145.039L148.804 0H160Z" fill="#FF720D"/>
</svg>
